<svg width="50" height="50" viewBox="0 0 50 50" fill="none" xmlns="http://www.w3.org/2000/svg">
<path fill-rule="evenodd" clip-rule="evenodd" d="M33.7312 7.07317C28.0451 6.97633 22.4237 6.97424 16.8694 7.07317C9.61945 7.08248 4.29956 12.5687 4.29956 19.8876V29.1114C4.29956 36.4304 9.61959 41.9166 16.8697 41.9258C22.3922 42.0226 28.0096 42.0268 33.7318 41.9258C40.9823 41.9166 46.2998 36.4299 46.2998 29.1114V19.8876C46.2998 12.5712 40.9823 7.08207 33.7312 7.07317Z" fill="#E7F3FF"/>
<path d="M45.3 17.9998C46.9569 17.9998 48.3001 19.3429 48.3001 20.9998V27.9998C48.3001 29.6567 46.9569 30.9998 45.3 30.9998V17.9998Z" fill="#247FF9"/>
<path d="M5.30005 31.0002C3.64318 31.0002 2.30003 29.6571 2.30003 28.0002L2.30003 21.0002C2.30003 19.3433 3.64319 18.0002 5.30005 18.0002L5.30005 31.0002Z" fill="#247FF9"/>
<path d="M20.2996 21.4998C20.2996 23.4328 18.7326 24.9998 16.7996 24.9998C14.8666 24.9998 13.2996 23.4328 13.2996 21.4998C13.2996 19.5668 14.8666 17.9998 16.7996 17.9998C18.7326 17.9998 20.2996 19.5668 20.2996 21.4998Z" fill="#247FF9"/>
<path d="M37.3001 21.4998C37.3001 23.4328 35.7331 24.9998 33.8001 24.9998C31.8671 24.9998 30.3 23.4328 30.3 21.4998C30.3 19.5668 31.8671 17.9998 33.8001 17.9998C35.7331 17.9998 37.3001 19.5668 37.3001 21.4998Z" fill="#247FF9"/>
<path d="M25.3002 34C28.4809 34 31.1661 31.8787 32.0181 28.9736C32.329 27.9137 31.4048 27 30.3002 27H20.3002C19.1956 27 18.2713 27.9137 18.5822 28.9736C19.4343 31.8787 22.1195 34 25.3002 34Z" fill="#247FF9"/>
<path d="M27.2998 4.00001C27.2998 5.10459 26.4044 6.00002 25.2998 6.00002C24.1952 6.00002 23.2998 5.10459 23.2998 4.00001C23.2998 2.89544 24.1952 2 25.2998 2C26.4044 2 27.2998 2.89544 27.2998 4.00001Z" fill="#247FF9"/>
<path fill-rule="evenodd" clip-rule="evenodd" d="M33.6794 11.0729C28.0257 10.9764 22.4398 10.9744 16.9235 11.0729C16.9117 11.0731 16.8998 11.0732 16.8879 11.0732C11.914 11.0732 8.29959 14.6944 8.29959 19.8876V29.1114C8.29959 34.3045 11.914 37.9258 16.8879 37.9258C16.8933 37.9258 16.8988 37.9258 16.9043 37.9258C16.9105 37.9259 16.9168 37.926 16.923 37.9261C22.4107 38.0225 27.9924 38.0266 33.6782 37.9261C33.69 37.9259 33.7018 37.9258 33.7135 37.9258C38.6869 37.9258 42.2998 34.305 42.2998 29.1114V19.8876C42.2998 14.6957 38.6866 11.0732 33.7135 11.0732L33.6794 11.0729ZM33.7312 7.07317C28.0451 6.97633 22.4237 6.97424 16.8694 7.07317C9.61945 7.08248 4.29956 12.5687 4.29956 19.8876V29.1114C4.29956 36.4304 9.61959 41.9166 16.8697 41.9258C22.3922 42.0226 28.0096 42.0268 33.7318 41.9258C40.9823 41.9166 46.2998 36.4299 46.2998 29.1114V19.8876C46.2998 12.5712 40.9823 7.08207 33.7312 7.07317Z" fill="#247FF9"/>
</svg>
