<svg width="50" height="50" viewBox="0 0 50 50" fill="none" xmlns="http://www.w3.org/2000/svg">
<path d="M4 17.4211C4 11.6657 8.70101 7 14.5 7H35.5C41.299 7 46 11.6657 46 17.4211V32.5789C46 38.3343 41.299 43 35.5 43H14.5C8.70101 43 4 38.3343 4 32.5789V17.4211Z" fill="#F6F9E6"/>
<path fill-rule="evenodd" clip-rule="evenodd" d="M11.3454 17.7712C11.9427 16.946 13.1081 16.7526 13.9484 17.3392L23.1686 23.7769C24.2551 24.5182 25.8199 24.5189 26.9072 23.7788L36.0455 17.3436C36.8833 16.7536 38.0495 16.9423 38.6502 17.7652C39.2509 18.588 39.0587 19.7334 38.2209 20.3234L29.0719 26.7661L29.0528 26.7794C26.6795 28.4069 23.399 28.4069 21.0257 26.7794L21.0128 26.7704L11.7852 20.3277C10.945 19.741 10.7481 18.5964 11.3454 17.7712Z" fill="#F9BD22"/>
<path fill-rule="evenodd" clip-rule="evenodd" d="M4 17.4211C4 11.6657 8.70101 7 14.5 7H35.5C41.299 7 46 11.6657 46 17.4211V32.5789C46 38.3343 41.299 43 35.5 43H14.5C8.70101 43 4 38.3343 4 32.5789V17.4211ZM14.5 10.7895C10.8097 10.7895 7.81818 13.7585 7.81818 17.4211V32.5789C7.81818 36.2415 10.8097 39.2105 14.5 39.2105H35.5C39.1903 39.2105 42.1818 36.2415 42.1818 32.5789V17.4211C42.1818 13.7585 39.1903 10.7895 35.5 10.7895H14.5Z" fill="#F9BD22"/>
</svg>
