<svg width="50" height="50" viewBox="0 0 50 50" fill="none" xmlns="http://www.w3.org/2000/svg">
<path d="M3.83472 17.3748C3.83472 12.1058 8.10607 7.83447 13.375 7.83447H36.125C41.394 7.83447 45.6654 12.1058 45.6654 17.3748V32.7861C45.6654 38.0551 41.394 42.3264 36.125 42.3264H13.375C8.10607 42.3264 3.83472 38.0551 3.83472 32.7861V17.3748Z" fill="#E3FCF7"/>
<path fill-rule="evenodd" clip-rule="evenodd" d="M2 17.375C2 11.0928 7.09276 6 13.375 6H36.125C42.4072 6 47.5 11.0928 47.5 17.375V32.7863C47.5 39.0685 42.4072 44.1613 36.125 44.1613H13.375C7.09276 44.1613 2 39.0685 2 32.7863V17.375ZM13.375 9.66935C9.11929 9.66935 5.66935 13.1193 5.66935 17.375V32.7863C5.66935 37.042 9.11929 40.4919 13.375 40.4919H36.125C40.3807 40.4919 43.8306 37.042 43.8306 32.7863V17.375C43.8306 13.1193 40.3807 9.66935 36.125 9.66935H13.375Z" fill="#17CAA6"/>
<path fill-rule="evenodd" clip-rule="evenodd" d="M37.5853 15.7273C38.4952 16.5338 38.5791 17.9253 37.7726 18.8352L25.1423 33.0862C23.7457 34.6619 21.3125 34.7418 19.8156 33.261L13.2944 26.8097C12.43 25.9546 12.4224 24.5606 13.2776 23.6962C14.1327 22.8318 15.5267 22.8243 16.3911 23.6794L22.3612 29.5855L34.4773 15.9147C35.2838 15.0047 36.6753 14.9209 37.5853 15.7273Z" fill="#17CAA6"/>
</svg>
