<svg width="50" height="50" viewBox="0 0 50 50" fill="none" xmlns="http://www.w3.org/2000/svg">
<path d="M46 29C46 31.8922 45.2778 34.6157 44.0038 37C43.2053 38.4945 45.69 43.3141 44.5 44.5C43.3257 45.6702 38.4813 43.2114 37.0071 44C34.6211 45.2763 31.8951 46 29 46C19.6112 46 12 38.3888 12 29C12 19.6112 19.6112 12 29 12C38.3888 12 46 19.6112 46 29Z" fill="#E3FCF7" stroke="#17CAA6" stroke-width="4" stroke-linecap="round"/>
<rect x="2" y="2" width="37" height="29" rx="6" fill="#F6F9E6" stroke="#F9BD22" stroke-width="4" stroke-linecap="round"/>
<path d="M8 9L16.7518 16.0015C18.9431 17.7545 22.0569 17.7545 24.2482 16.0015L33 9" stroke="#F9BD22" stroke-width="4" stroke-linecap="round"/>
</svg>
