<svg width="50" height="50" viewBox="0 0 50 50" fill="none" xmlns="http://www.w3.org/2000/svg">
<g clip-path="url(#clip0)">
<path fill-rule="evenodd" clip-rule="evenodd" d="M6 15.8362C6 10.4038 10.3869 6 15.7984 6H35.3952C40.8067 6 45.1935 10.4038 45.1935 15.8362V33.9058C45.1935 39.3381 40.8067 43.7419 35.3952 43.7419H15.7984C10.3869 43.7419 6 39.3381 6 33.9058L6 15.8362Z" fill="#FBEFFD"/>
<path d="M9.62891 15.4355H42.2902V18.3388H9.62891V15.4355Z" fill="#AD13C1"/>
<path d="M29 29L50.0484 36.8931L41.2782 41.2782L36.8931 50.0484L29 29Z" fill="#AD13C1"/>
<path fill-rule="evenodd" clip-rule="evenodd" d="M15.8021 6C10.3885 6 6 10.3851 6 15.7944L6 33.7874C6 39.1967 10.3885 43.5818 15.8021 43.5818H32.0307L30.6951 40.0202H15.8021C12.3571 40.0202 9.5644 37.2297 9.5644 33.7874L9.5644 15.7944C9.5644 12.3521 12.3571 9.56161 15.8021 9.56161H35.4063C38.8513 9.56161 41.644 12.3521 41.644 15.7944V31.3043L45.2084 32.641V15.7944C45.2084 10.3851 40.8198 6 35.4063 6H15.8021ZM45.044 35.5831L41.6232 34.3003C41.3621 37.5026 38.6784 40.0202 35.4063 40.0202H33.6989L35.0345 43.5818H35.4063C40.206 43.5818 44.2 40.1348 45.044 35.5831Z" fill="#AD13C1"/>
</g>
<defs>
<clipPath id="clip0">
<rect width="50" height="50" fill="white"/>
</clipPath>
</defs>
</svg>
