<svg width="54" height="54" viewBox="0 0 54 54" version="1.1" xmlns="http://www.w3.org/2000/svg" xmlns:xlink="http://www.w3.org/1999/xlink">
<title>Sendpulse</title>
<desc>Created using Figma</desc>
<g id="Canvas" transform="translate(-3382 -4614)">
<g id="Sendpulse">
<use xlink:href="#path0_fill" transform="translate(3382 4614)" fill="#FFFFFF"/>
</g>
</g>
<defs>
<path id="path0_fill" d="M 25.3699 0C 27.5448 0.0182633 29.7197 -0.0182633 31.8989 0.0273949C 32.9376 9.56084 33.9763 19.0897 35.0574 28.614C 37.3892 28.5821 39.7252 28.614 42.0612 28.5958C 43.7486 25.2444 48.0815 23.9432 51.0577 26.0891C 54.5214 28.2214 55.0514 34.0793 51.9819 36.8508C 49.1499 39.9875 43.8843 38.9054 42.0273 35.1112C 37.7707 35.1021 33.5142 35.1066 29.2576 35.1112C 28.6683 30.3079 27.9857 25.5138 27.3879 20.7106C 24.5898 31.7873 21.9103 42.8959 19.2012 53.9954C 17.1068 54 15.0082 53.9954 12.9181 54C 11.4173 47.2745 9.97157 40.5308 8.47499 33.8054C 5.65565 33.778 2.84054 33.8008 0.0211981 33.7917C 0 31.6229 0.0254377 29.4541 0 27.2899C 4.6339 27.2854 9.2678 27.2899 13.8975 27.2854C 14.6479 30.8513 15.4407 34.4035 16.208 37.9603C 19.2945 25.3175 22.2877 12.6473 25.3699 0Z"/>
</defs>
</svg>
