<svg width="50" height="50" viewBox="0 0 50 50" fill="none" xmlns="http://www.w3.org/2000/svg">
<path d="M24.9999 45.9997C28.3302 45.9997 31.1418 43.7552 32.0339 40.6814C32.3594 39.56 31.3917 38.5933 30.2352 38.5933H19.7647C18.6082 38.5933 17.6404 39.56 17.9659 40.6814C18.8581 43.7552 21.6696 45.9997 24.9999 45.9997Z" fill="#A244FA"/>
<path fill-rule="evenodd" clip-rule="evenodd" d="M9.42125 17.2106C10.1719 9.19525 17.9323 4.03027 25.2274 4.03027H25.3888C32.6859 4.03027 40.4403 9.19567 41.2145 17.2044L41.2163 17.2237C41.2861 18.0245 41.2846 18.8128 41.2821 19.5026L41.2819 19.5619C41.2796 20.1998 41.2775 20.755 41.3101 21.2925C41.624 22.673 42.2945 23.9559 43.2622 25.0166C43.3298 25.0907 43.392 25.1697 43.4483 25.2528C44.4199 26.6887 44.9766 28.3613 45.0545 30.0907C45.0559 30.1219 45.0566 30.1531 45.0566 30.1844V30.596C45.1074 32.911 44.3074 35.1614 42.8115 36.9356C42.7844 36.9678 42.7562 36.9992 42.7271 37.0297C40.8252 39.0256 38.2529 40.2623 35.4982 40.5173C28.7168 41.2443 21.875 41.2442 15.0936 40.5169C12.3457 40.2524 9.78052 39.0196 7.87471 37.0358C7.83969 36.9994 7.80601 36.9616 7.77374 36.9227C6.30338 35.1502 5.51599 32.9167 5.55958 30.6191V30.1844C5.55958 30.15 5.56043 30.1156 5.56213 30.0813C5.64762 28.3556 6.20014 26.6865 7.15908 25.2461C7.21974 25.155 7.28749 25.0688 7.3617 24.9883C8.31367 23.9563 8.97609 22.7061 9.29116 21.3591C9.2914 20.0501 9.29695 18.6345 9.42006 17.2237L9.42125 17.2106Z" fill="#F0EDFF"/>
<path fill-rule="evenodd" clip-rule="evenodd" d="M13.0698 17.5927C12.9568 18.8719 12.9555 20.1854 12.9555 21.5854C12.9555 21.7275 12.9407 21.8692 12.9114 22.0084C12.4677 24.1153 11.4627 26.068 10.0021 27.6747C9.50607 28.4516 9.2194 29.3333 9.16563 30.2401V30.6401C9.16563 30.655 9.16547 30.6699 9.16514 30.6847C9.13744 31.9563 9.56906 33.2017 10.3924 34.2063C11.6178 35.4357 13.2642 36.2087 15.0385 36.3748L15.064 36.3774C21.6613 37.0749 28.3177 37.0749 34.915 36.3774L34.9489 36.3741C36.7243 36.2148 38.3716 35.4397 39.5899 34.2034C40.4282 33.2015 40.8667 31.9497 40.8345 30.672C40.8343 30.6632 40.8341 30.6544 40.834 30.6456C40.8339 30.6371 40.8338 30.6287 40.8338 30.6203V30.2352C40.7851 29.3365 40.4991 28.4626 40.0005 27.6968C38.5433 26.0806 37.5384 24.1233 37.089 22.0129C37.0696 21.9217 37.0564 21.8294 37.0495 21.7365C36.9945 20.9912 36.9974 20.2503 37 19.5993C37.0002 19.5618 37.0003 19.5245 37.0004 19.4876C37.003 18.7844 37.0015 18.1787 36.9504 17.5955C36.4199 12.2549 30.9008 8.19224 25.0817 8.19224H24.9178C19.0953 8.19224 13.5814 12.257 13.0698 17.5927ZM8.86467 17.2106C9.62702 9.19525 17.5087 4.03027 24.9178 4.03027H25.0817C32.4929 4.03027 40.3684 9.19567 41.1547 17.2044L41.1565 17.2237C41.2274 18.0245 41.2259 18.8128 41.2234 19.5026L41.2232 19.5619C41.2208 20.1998 41.2187 20.755 41.2518 21.2925C41.5706 22.673 42.2515 23.9559 43.2344 25.0166C43.3031 25.0907 43.3662 25.1697 43.4234 25.2528C44.4102 26.6887 44.9756 28.3613 45.0547 30.0907C45.0561 30.1219 45.0568 30.1531 45.0568 30.1844V30.596C45.1084 32.911 44.296 35.1614 42.7767 36.9356C42.7491 36.9678 42.7205 36.9992 42.691 37.0297C40.7593 39.0256 38.1468 40.2623 35.349 40.5173C28.4617 41.2443 21.513 41.2442 14.6257 40.5169C11.8349 40.2524 9.22956 39.0196 7.29396 37.0358C7.2584 36.9994 7.2242 36.9616 7.19142 36.9227C5.69808 35.1502 4.8984 32.9168 4.94266 30.6191V30.1844C4.94266 30.15 4.94353 30.1156 4.94525 30.0813C5.03207 28.3556 5.59323 26.6865 6.56716 25.2461C6.62876 25.155 6.69757 25.0688 6.77294 24.9883C7.73978 23.9563 8.41256 22.7061 8.73255 21.3591C8.73279 20.0501 8.73843 18.6345 8.86346 17.2237L8.86463 17.2106L8.86467 17.2106Z" fill="#A244FA"/>
</svg>
