<svg width="50" height="50" viewBox="0 0 50 50" fill="none" xmlns="http://www.w3.org/2000/svg">
<path d="M46 25C46 28.4372 45.664 30.8361 44.2 33.7C43.4692 35.1296 46.6 39.5697 44.8 41.7052C43.3 43.4848 37.9252 41.4651 36.7 42.4C33.1687 45.0945 29.7849 46 25 46C13.402 46 4 36.598 4 25C4 13.402 13.402 4 25 4C36.598 4 46 13.402 46 25Z" fill="#E3FCF7"/>
<path fill-rule="evenodd" clip-rule="evenodd" d="M8.34717 25C8.34717 34.1971 15.8029 41.6528 25 41.6528C29.0614 41.6528 31.4534 40.9352 34.0629 38.944C35.0732 38.1732 36.1456 37.9528 36.7305 37.8702C37.3763 37.7791 37.9928 37.7841 38.4582 37.8041C39.0993 37.8317 39.8949 37.9174 40.5166 37.9845C40.3491 37.4552 40.1431 36.7955 40.0211 36.3077C39.9094 35.8608 39.7786 35.2446 39.7473 34.568C39.7174 33.9226 39.7566 32.8415 40.3293 31.7213C41.3669 29.6914 41.6528 28.0507 41.6528 25C41.6528 15.8029 34.1971 8.34717 25 8.34717C15.8029 8.34717 8.34717 15.8029 8.34717 25ZM42.72 38.0947C42.7212 38.0956 42.7033 38.0998 42.6627 38.1049C42.6985 38.0964 42.7188 38.0939 42.72 38.0947ZM44.2 33.7C45.664 30.8361 46 28.4372 46 25C46 13.402 36.598 4 25 4C13.402 4 4 13.402 4 25C4 36.598 13.402 46 25 46C29.7849 46 33.1687 45.0945 36.7 42.4C37.2216 42.002 38.4954 42.1395 39.9021 42.2913C41.7995 42.4962 43.9386 42.7271 44.8 41.7052C45.8641 40.4427 45.205 38.3749 44.6392 36.5998C44.2479 35.3721 43.9012 34.2845 44.2 33.7Z" fill="#17CAA6"/>
<path d="M21 25.5C21 26.8807 19.8807 28 18.5 28C17.1193 28 16 26.8807 16 25.5C16 24.1193 17.1193 23 18.5 23C19.8807 23 21 24.1193 21 25.5Z" fill="#17CAA6"/>
<path d="M28 25.5C28 26.8807 26.8807 28 25.5 28C24.1193 28 23 26.8807 23 25.5C23 24.1193 24.1193 23 25.5 23C26.8807 23 28 24.1193 28 25.5Z" fill="#17CAA6"/>
<path d="M35 25.5C35 26.8807 33.8807 28 32.5 28C31.1193 28 30 26.8807 30 25.5C30 24.1193 31.1193 23 32.5 23C33.8807 23 35 24.1193 35 25.5Z" fill="#17CAA6"/>
</svg>
