<svg width="284" height="136" viewBox="0 0 284 136" fill="none" xmlns="http://www.w3.org/2000/svg">
<path d="M72.3448 27L57.4521 104.401L137.764 107.967V43.2946L72.3448 27Z" fill="#FFE043"/>
<path d="M48.7489 54.2402L53.2943 86.4095H46.3027L43.7047 68.0538L36.4989 86.4172H30.2376L23.1427 68.0538L20.3714 86.4095H13L17.489 54.2402H24.5839L33.1745 75.1811L41.7649 54.2402H48.7489Z" fill="black"/>
<path d="M88.8815 82.033C87.694 83.7824 86.019 85.1534 84.0593 85.98C81.5467 87.0745 78.8189 87.6009 76.0746 87.5211C73.8128 87.5119 71.5733 87.0791 69.4743 86.2458C67.4051 85.4529 65.5056 84.2811 63.8752 82.792C62.2498 81.2848 60.9328 79.4825 59.9957 77.4831C58.9866 75.3382 58.4756 72.9969 58.5001 70.6312C58.4756 68.2655 58.9868 65.9242 59.9957 63.7793C60.9507 61.758 62.2858 59.9346 63.9298 58.4068C65.5606 56.9184 67.4601 55.7467 69.5289 54.953C71.6273 54.1243 73.8656 53.6961 76.1252 53.6912C77.541 53.6928 78.9527 53.8399 80.3376 54.1305C81.5804 54.3744 82.7898 54.7624 83.9406 55.2862C84.9479 55.7603 85.8963 56.3486 86.7665 57.0392C87.5448 57.6395 88.2184 58.3617 88.7608 59.1773L86.5444 65.2028C85.4859 64.0004 84.1834 63.0316 82.7214 62.3597C80.8621 61.4507 78.8083 60.9992 76.7347 61.0439C75.2489 61.027 73.7702 61.2494 72.3567 61.7027C71.0807 62.1219 69.896 62.7755 68.8648 63.6291C67.864 64.4463 67.0609 65.4749 66.5142 66.6391C65.9675 67.8035 65.6915 69.074 65.7059 70.3577C65.6891 71.6436 65.9642 72.9169 66.5109 74.0837C67.0575 75.2506 67.862 76.2812 68.8648 77.0997C69.896 77.9533 71.0807 78.6069 72.3567 79.026C73.7702 79.4793 75.2489 79.7019 76.7347 79.6848C78.8457 79.7478 80.9399 79.296 82.8325 78.3692C84.2905 77.6635 85.5761 76.6535 86.601 75.4084L88.8815 81.6497V82.033Z" fill="black"/>
<path d="M96.7532 78.9623C97.2083 78.5108 97.752 78.1564 98.3509 77.9207C98.9498 77.6852 99.5911 77.5735 100.235 77.5927C100.88 77.5746 101.521 77.6868 102.12 77.9223C102.719 78.158 103.263 78.5121 103.719 78.9629C104.175 79.4137 104.533 79.9518 104.771 80.5444C105.009 81.1367 105.122 81.7711 105.104 82.4084C105.122 83.0457 105.009 83.68 104.771 84.2726C104.533 84.8649 104.175 85.403 103.719 85.854C103.263 86.3049 102.719 86.6589 102.12 86.8944C101.521 87.1301 100.88 87.2423 100.235 87.2242C99.5911 87.242 98.9499 87.1296 98.351 86.8939C97.7523 86.6581 97.2083 86.304 96.7525 85.8534C96.2969 85.4025 95.9389 84.8644 95.7004 84.2722C95.4622 83.6799 95.3486 83.0457 95.3665 82.4084C95.3473 81.7707 95.4602 81.1359 95.6988 80.5432C95.9372 79.9505 96.2962 79.4124 96.7532 78.9623Z" fill="black"/>
<path d="M128.109 83.9516C127.376 84.9428 126.405 85.7374 125.283 86.2632C123.953 86.8977 122.491 87.2164 121.014 87.1936C119.726 87.2977 118.431 87.1257 117.216 86.6891C116.002 86.2527 114.897 85.5619 113.978 84.6644C112.315 82.6667 111.48 80.1198 111.641 77.5369V65.5938H106.772V63.3401L116.581 51.0599H118.743V58.1872H127.778V65.5881H118.687V76.0037C118.624 76.5354 118.686 77.0744 118.869 77.5784C119.051 78.0824 119.35 78.5377 119.74 78.9085C120.454 79.4544 121.333 79.7445 122.235 79.7311C123.075 79.7544 123.91 79.5856 124.673 79.2379C125.423 78.842 126.085 78.3017 126.621 77.6488L128.117 83.8977L128.109 83.9516Z" fill="black"/>
<path d="M147.788 87.2415C145.79 87.2488 143.81 86.8557 141.969 86.0858C140.183 85.3438 138.548 84.2849 137.147 82.9612C135.745 81.6148 134.614 80.0164 133.817 78.2515C132.986 76.3868 132.571 74.3673 132.598 72.3299C132.57 70.2932 132.986 68.2744 133.817 66.4105C134.613 64.6437 135.742 63.0433 137.143 61.6949C138.545 60.3727 140.179 59.3152 141.965 58.5743C143.809 57.8143 145.787 57.4231 147.785 57.4231C149.782 57.4231 151.76 57.8143 153.604 58.5743C155.39 59.3146 157.024 60.3722 158.426 61.6949C159.828 63.0431 160.957 64.6436 161.752 66.4105C162.585 68.2737 163.004 70.2926 162.979 72.3299V72.3859C163.012 74.4232 162.596 76.4432 161.76 78.3054C160.965 80.0563 159.836 81.6386 158.433 82.9652C157.033 84.2893 155.398 85.3482 153.612 86.0895C151.769 86.8587 149.788 87.2507 147.788 87.2415ZM147.893 64.9311C146.815 64.9152 145.743 65.1008 144.735 65.4782C143.794 65.8275 142.929 66.3505 142.185 67.0191C141.463 67.6687 140.895 68.4687 140.522 69.3615C140.118 70.3195 139.911 71.3477 139.915 72.3859V72.4956C139.913 73.5311 140.119 74.5566 140.522 75.5122C140.893 76.4096 141.462 77.2143 142.185 77.868C142.928 78.5375 143.793 79.0607 144.735 79.4092C145.743 79.787 146.815 79.9727 147.893 79.9563C149.961 79.9976 151.965 79.2522 153.493 77.8739C154.216 77.2073 154.799 76.4068 155.21 75.5181C155.659 74.5748 155.887 73.5437 155.876 72.5015C155.887 71.4417 155.66 70.3929 155.21 69.4309C154.802 68.524 154.219 67.7046 153.493 67.0191C152.761 66.3616 151.916 65.8396 150.998 65.4782C150.009 65.0977 148.954 64.9119 147.893 64.9311Z" fill="black"/>
<path d="M182.144 87.2415C180.242 87.2395 178.359 86.8671 176.602 86.1455C174.857 85.4416 173.274 84.3974 171.947 83.0749C170.598 81.7193 169.526 80.118 168.792 78.3594C167.996 76.448 167.599 74.3971 167.624 72.3299L167.678 72.4956C167.654 70.4287 168.052 68.378 168.847 66.4663C169.581 64.7074 170.653 63.1056 172.002 61.7488C173.318 60.4391 174.881 59.3967 176.602 58.6802C178.321 57.9599 180.168 57.5873 182.035 57.584C183.902 57.527 185.759 57.883 187.47 58.6263C188.74 59.1406 189.794 60.0698 190.458 61.2594V46.6195H197.499V86.5289H190.683V83.57C190.013 84.7761 188.934 85.7082 187.634 86.2014C185.903 86.9418 184.029 87.2969 182.144 87.2415ZM182.975 65.0408C181.842 65.0155 180.715 65.2012 179.652 65.5879C178.693 65.9336 177.809 66.4566 177.048 67.129C176.323 67.7829 175.755 68.5883 175.385 69.4868C174.981 70.4416 174.774 71.4665 174.775 72.5015V72.5572C174.774 73.5922 174.981 74.6172 175.385 75.572C175.755 76.4704 176.323 77.2758 177.048 77.9297C177.81 78.6013 178.693 79.1243 179.652 79.4708C180.715 79.8569 181.842 80.0424 182.975 80.0179C184.613 80.0409 186.231 79.6643 187.687 78.9217C188.884 78.3937 189.851 77.4579 190.41 76.2846V68.7721C189.849 67.5987 188.883 66.6631 187.684 66.135C186.228 65.3937 184.611 65.018 182.975 65.0408Z" fill="black"/>
<path d="M218.501 87.2474C216.599 87.2457 214.715 86.8733 212.958 86.1514C211.215 85.4468 209.632 84.4026 208.303 83.0808C206.954 81.723 205.883 80.1198 205.148 78.3594C204.362 76.4745 203.966 74.4536 203.981 72.4147C203.964 70.3741 204.362 68.351 205.148 66.4645C205.883 64.7061 206.954 63.1048 208.302 61.7488C209.63 60.4262 211.213 59.382 212.958 58.6782C214.715 57.9563 216.599 57.5839 218.501 57.5822C220.386 57.527 222.259 57.8827 223.989 58.6243C225.289 59.1168 226.368 60.0493 227.036 61.2557V58.295H233.853V86.5269H227.036V83.5662C226.368 84.7726 225.287 85.7054 223.989 86.1994C222.259 86.9423 220.386 87.3 218.501 87.2474ZM219.28 65.0447C218.147 65.0196 217.02 65.2059 215.957 65.5938C214.999 65.9395 214.113 66.4625 213.352 67.1347C212.628 67.7888 212.059 68.5942 211.689 69.4926C211.285 70.4474 211.077 71.4722 211.079 72.5072V72.5612C211.077 73.5968 211.285 74.6223 211.689 75.5778C212.059 76.4758 212.628 77.2813 213.352 77.9356C214.115 78.607 214.999 79.13 215.957 79.4767C217.02 79.8629 218.147 80.0486 219.28 80.0237C220.918 80.0463 222.536 79.6691 223.99 78.9257C225.189 78.3899 226.152 77.4466 226.706 76.2674V68.7547C226.144 67.5898 225.181 66.6611 223.989 66.135C222.533 65.3913 220.915 65.0142 219.276 65.037L219.28 65.0447Z" fill="black"/>
<path d="M246.545 58.1871L254.026 75.73L261.506 58.1871H269.332L252.252 98.0963H244.547L250.367 84.6642L238.949 58.1871H246.545Z" fill="black"/>
</svg>
