<svg width="284" height="136" fill="none" xmlns="http://www.w3.org/2000/svg">
  <path d="M82.914 12.01c-.818 0-1.796 3.455-3.595 5.263-1.47 1.48-2.94 1.48-3.759 2.96-.655.66-.326 1.808-.655 2.632-.819 1.975-3.596 2.303-3.596 4.443 0 2.304 2.126 2.96 4.085 4.444 1.47 1.48 1.795 2.303 3.595 2.96 1.47.66 3.759-1.152 5.884-.66 1.47.66 3.27.824 3.596 2.632.326 1.808 0 4.111-2.126 3.783-.655 0-3.595-1.152-7.354-.66-4.414.66-9.48 1.976-9.968 7.076-.326 2.96 3.27 6.087 6.535 5.263 2.289-.328 1.145-3.291 2.289-4.443 1.796-1.808 10.95 5.923 19.448 5.923 3.596 0 6.21-.823 9.15-3.783.326-.329.656-.66.818-.66.326 0 .819.328 1.145.66 7.028 5.595 12.094 16.946 37.589 16.946 3.595 0 7.68 1.808 10.95 4.936 2.94 2.631 4.739 7.075 6.535 11.35 2.615 6.416 7.029 12.832 14.057 19.907.326.328 6.21 4.936 6.536 5.264 0 0 .655 1.151.326 1.48 0 4.443-.819 16.618 8.172 17.274 2.288 0 1.796-1.48 1.796-2.632 0-1.976-.326-4.443.655-6.415 1.471-2.96-3.269-4.444-3.269-10.859 0-4.936-3.759-4.112-5.884-7.896-1.145-1.975-2.289-3.291-2.126-5.76.656-14.97-3.27-24.513-5.066-26.817-1.47-1.808-2.614-2.631-1.144-3.455 7.68-4.936 9.48-9.871 9.48-9.871 4.084-9.708 7.68-18.427 12.583-22.21 1.144-.824 3.595-2.632 5.228-3.456 4.74-2.304 7.029-3.456 8.499-4.936 2.125-1.975 3.758-6.415 1.796-9.047-2.615-3.292-7.029-.66-9.154.66-14.057 8.391-16.178 23.034-20.918 31.589-3.759 6.747-9.969 11.679-15.853 12.339-4.084.328-8.824-.66-13.238-2.632-11.113-4.936-16.997-11.023-18.467-12.339-2.94-2.304-25.821-25.173-44.78-25.994 0 0-2.289-4.607-2.94-4.607-1.47-.328-2.615 2.96-3.759 3.291-.489-.66-2.288-4.111-3.107-3.947l.011.003z" fill="#222"/>
</svg>
