<svg width="284" height="136" fill="none" xmlns="http://www.w3.org/2000/svg">
  <path d="M155.4 53.354l-3.873 10.563a11.58 11.58 0 00-.445 2.528 11.99 11.99 0 00-.445-2.528l-3.926-10.563h-12.667v25.524h8.139V63.706c.026.58.131 1.16.367 1.712l5.757 13.46h5.549l5.758-13.46c.209-.553.34-1.132.366-1.712v15.172h8.14V53.354H155.4zm-35.646-3.53h-11.699c-.811 0-1.858-.368-1.858-1.474 0-1.16 1.047-1.475 1.858-1.475h19.446V40h-20.179c-4.815 0-8.82 2.792-8.82 8.192 0 4.846 3.56 8.481 8.428 8.481h12.091c.811 0 1.858.37 1.858 1.475 0 1.16-1.047 1.475-1.858 1.475H99.078v6.875h20.65c4.815 0 8.82-2.95 8.82-8.323 0-5.453-4.345-8.35-8.794-8.35zm0 30.503h-11.699c-.811 0-1.858-.37-1.858-1.475 0-1.16 1.047-1.475 1.858-1.475h19.446v-6.875h-20.179c-4.815 0-8.82 2.792-8.82 8.192 0 4.846 3.56 8.481 8.428 8.481h12.091c.811 0 1.858.369 1.858 1.475 0 1.16-1.047 1.475-1.858 1.475H99.078V97h20.65c4.815 0 8.82-2.95 8.82-8.323 0-5.48-4.345-8.35-8.794-8.35zm63.833-26.973l-12.824 25.524h9.971l2.356-4.715h10.914l2.355 4.715h10.024l-12.824-25.524h-9.972zm1.911 14.33l2.669-5.348c.236-.526.393-1.106.393-1.685.026.58.157 1.159.392 1.685l2.67 5.347h-6.124zm44.152-.317a2.844 2.844 0 00-.576-1.58L218.5 53.354h-9.395v25.524h9.369V64.865c.026.58.21 1.133.55 1.58l10.207 12.433h9.317V53.354h-8.898v14.013zm37.452-14.013v14.013a2.844 2.844 0 00-.576-1.58l-10.574-12.433h-9.395v25.524h9.369V64.865c.026.58.21 1.133.55 1.58l10.207 12.433H276V53.354h-8.898zM27.577 68.87c-.236.553-.393 1.132-.393 1.738a4.945 4.945 0 00-.393-1.738L19.36 53.354H8l13.53 25.524h11.28l13.532-25.524H35.009L27.577 68.87zM50.11 78.878h9.448V53.354H50.11v25.524zm26.904-10.404h14.16v-5.69h-14.16V59.65h17.248v-6.296H68.09v25.524h26.852v-6.875H77.015v-3.53z" fill="#151516"/>
</svg>
